<svg width="64" height="32" viewBox="0 0 64 32" fill="none" xmlns="http://www.w3.org/2000/svg">
<rect width="64" height="32" rx="8" fill="#B53B1B"/>
<path d="M20.4148 20H19.3068L22.5114 11.2727H23.6023L26.8068 20H25.6989L23.0909 12.6534H23.0227L20.4148 20ZM20.8239 16.5909H25.2898V17.5284H20.8239V16.5909ZM30.8594 20H28.1662V11.2727H30.9787C31.8253 11.2727 32.5497 11.4474 33.152 11.7969C33.7543 12.1435 34.2159 12.642 34.5369 13.2926C34.858 13.9403 35.0185 14.7159 35.0185 15.6193C35.0185 16.5284 34.8565 17.3111 34.5327 17.9673C34.2088 18.6207 33.7372 19.1236 33.1179 19.4759C32.4986 19.8253 31.7457 20 30.8594 20ZM29.223 19.0625H30.7912C31.5128 19.0625 32.1108 18.9233 32.5852 18.6449C33.0597 18.3665 33.4134 17.9702 33.6463 17.456C33.8793 16.9418 33.9957 16.3295 33.9957 15.6193C33.9957 14.9148 33.8807 14.3082 33.6506 13.7997C33.4205 13.2884 33.0767 12.8963 32.6193 12.6236C32.1619 12.348 31.5923 12.2102 30.9105 12.2102H29.223V19.0625ZM39.4844 20H36.7912V11.2727H39.6037C40.4503 11.2727 41.1747 11.4474 41.777 11.7969C42.3793 12.1435 42.8409 12.642 43.1619 13.2926C43.483 13.9403 43.6435 14.7159 43.6435 15.6193C43.6435 16.5284 43.4815 17.3111 43.1577 17.9673C42.8338 18.6207 42.3622 19.1236 41.7429 19.4759C41.1236 19.8253 40.3707 20 39.4844 20ZM37.848 19.0625H39.4162C40.1378 19.0625 40.7358 18.9233 41.2102 18.6449C41.6847 18.3665 42.0384 17.9702 42.2713 17.456C42.5043 16.9418 42.6207 16.3295 42.6207 15.6193C42.6207 14.9148 42.5057 14.3082 42.2756 13.7997C42.0455 13.2884 41.7017 12.8963 41.2443 12.6236C40.7869 12.348 40.2173 12.2102 39.5355 12.2102H37.848V19.0625Z" fill="white"/>
</svg>
